PathFileType	4	(X/Y/Z)	E:\Qualisys_Data\Carbon_Farble_Plate\Data\Amateur_Runner\S2\T1\S2T1V22_c3d.trc
DataRate	CameraRate	NumFrames	NumMarkers	Units	OrigDataRate	OrigDataStartFrame	OrigNumFrames
200.000000	200.000000	4	39	mm	200.000000	81	327
Frame#	Time	LSHO			RSHO			LICST			RICST			LASIS			LHEEL			RASIS			LTROC			RTROC			SACR			LTH1			LSK4			LTH2			LTH3			RHM5			LSK2			LTH4			RTH1			LTOE			RTH2			RTH3			RTH4			LLEP			RLEP			LSK1			LSK3			RSK1			LHM5			RSK2			LFT1			RSK3			RSK4			LLME			RLME			RTOE			RHEEL			RFT1			RFT2			LFT2			
		X1	Y1	Z1	X2	Y2	Z2	X3	Y3	Z3	X4	Y4	Z4	X5	Y5	Z5	X6	Y6	Z6	X7	Y7	Z7	X8	Y8	Z8	X9	Y9	Z9	X10	Y10	Z10	X11	Y11	Z11	X12	Y12	Z12	X13	Y13	Z13	X14	Y14	Z14	X15	Y15	Z15	X16	Y16	Z16	X17	Y17	Z17	X18	Y18	Z18	X19	Y19	Z19	X20	Y20	Z20	X21	Y21	Z21	X22	Y22	Z22	X23	Y23	Z23	X24	Y24	Z24	X25	Y25	Z25	X26	Y26	Z26	X27	Y27	Z27	X28	Y28	Z28	X29	Y29	Z29	X30	Y30	Z30	X31	Y31	Z31	X32	Y32	Z32	X33	Y33	Z33	X34	Y34	Z34	X35	Y35	Z35	X36	Y36	Z36	X37	Y37	Z37	X38	Y38	Z38	X39	Y39	Z39	

82	0.405	-1946.728149414062	1507.708618164062	-458.9339294433594	-1845.864013671875	1495.325439453125	-179.7344970703125	-1917.718383789062	1039.635131835938	-449.1661376953125	-1885.869384765625	1028.355712890625	-152.8237609863281	-1860.588012695312	990.09814453125	-431.7335205078125	-1721.420654296875	115.7545928955078	-347.7023315429688	-1837.6953125	973.7139282226562	-179.0228729248047	-1982.33349609375	921.1832275390624	-452.8049926757812	-2000.804077148438	957.164794921875	-139.2653198242188	-1997.0615234375	1079.619384765625	-289.1750183105469	-1781.864868164062	701.535888671875	-473.697998046875	-1767.519897460938	320.3288879394531	-436.3821411132812	-1861.979125976562	675.938720703125	-465.6076965332031	-1750.313598632812	606.9228515625	-446.7793579101562	-2571.376220703125	317.9758605957031	-151.9457550048828	-1786.705322265625	416.2440185546875	-449.3004760742188	-1830.831909179688	583.4423828125	-437.856689453125	-1997.269897460938	671.094970703125	-140.7831878662109	-1507.836303710938	229.9774322509766	-377.6929931640625	-2065.7021484375	710.1616821289062	-135.4887237548828	-2046.801635742188	585.1455078125	-150.9906768798828	-2115.97314453125	627.4090576171875	-152.8387908935547	-1772.999145507812	554.2816162109375	-436.1501770019531	-2115.95556640625	585.509033203125	-146.4989318847656	-1711.072998046875	432.9645080566406	-441.0845336914062	-1690.29296875	335.7426147460938	-431.3353576660156	-2211.979736328125	506.7210693359375	-138.6597900390625	-1540.779663085938	180.5798797607422	-436.5939025878906	-2240.44189453125	581.9135131835938	-139.1932525634766	-1696.993408203125	102.1330795288086	-321.0974426269531	-2307.67236328125	470.6734313964844	-145.7190246582031	-2332.21240234375	545.4111328125	-152.1436462402344	-1675.419555664062	153.4190521240234	-407.4404907226562	-2496.029541015625	442.6349182128906	-178.0676727294922	-2547.205810546875	253.6551513671875	-202.4210510253906	-2497.9453125	495.1498413085938	-241.7691955566406	-2517.781982421875	475.4368591308594	-277.2053527832031	-2528.781982421875	498.8787841796875	-224.0883026123047	-1706.365844726562	90.04325866699219	-373.8923645019531
83	0.41	-1926.698852539062	1504.740356445312	-460.5243530273438	-1825.737670898438	1493.29052734375	-180.9257659912109	-1897.833984375	1037.638793945312	-449.1158752441406	-1866.517333984375	1025.696411132812	-152.9672698974609	-1840.137329101562	988.0419921875	-431.01220703125	-1698.02294921875	112.5728073120117	-345.757568359375	-1817.183837890625	971.9049682617188	-178.3003234863281	-1962.33642578125	918.4782104492188	-451.8781127929688	-1979.949096679688	954.1576538085938	-139.6938323974609	-1977.171508789062	1077.366455078125	-289.1487426757812	-1765.3671875	696.2703247070312	-475.1416320800781	-1747.0849609375	317.1609191894531	-435.7303466796875	-1845.832397460938	670.7540893554688	-466.807373046875	-1733.899658203125	601.8548583984375	-446.7547302246094	-2555.46484375	330.0322875976562	-151.9949798583984	-1767.55615234375	412.7499389648438	-448.4925842285156	-1814.893310546875	578.552978515625	-438.372802734375	-1974.802001953125	668.0429077148438	-140.0344848632812	-1485.919799804688	230.0437927246094	-374.9341735839844	-2042.6435546875	706.482421875	-134.3436126708984	-2023.465087890625	581.1968383789062	-148.8215637207031	-2092.3583984375	623.2139892578125	-151.2728424072266	-1756.32958984375	550.701904296875	-436.1057739257812	-2091.470947265625	581.4149780273438	-145.1307220458984	-1691.789306640625	430.3726196289062	-439.6567687988281	-1669.792602539062	333.4076232910156	-429.8203430175781	-2188.976806640625	505.4735717773438	-137.9157562255859	-1518.71875	180.3276062011719	-435.3125610351562	-2213.650634765625	580.412109375	-136.8448944091797	-1673.929931640625	98.8295669555664	-319.5948486328125	-2285.700439453125	472.3904418945312	-144.9402008056641	-2308.36572265625	548.4024047851562	-152.2273406982422	-1652.295654296875	150.9073486328125	-405.5835876464844	-2474.754150390625	450.9566955566406	-177.8998718261719	-2533.3408203125	264.806396484375	-201.8886108398438	-2473.739013671875	502.884033203125	-242.2356109619141	-2495.342041015625	484.8338623046875	-277.7007141113281	-2505.1103515625	508.1576843261719	-224.4623107910156	-1682.908325195312	87.80998229980469	-372.036376953125
84	0.415	-1906.509643554688	1501.077514648438	-461.4976501464844	-1806.149658203125	1490.835693359375	-181.8772583007812	-1877.964233398438	1034.592041015625	-449.4839477539062	-1846.472534179688	1023.686828613281	-152.8603973388672	-1820.789184570312	985.3418579101562	-430.7925415039062	-1676.83544921875	109.8333892822266	-343.4195861816406	-1796.583618164062	969.56787109375	-178.4111175537109	-1942.824951171875	915.4144287109376	-451.1058044433594	-1958.839111328125	950.5732421875	-139.3311157226562	-1956.944946289062	1074.772094726562	-288.5930786132812	-1748.390502929688	690.778076171875	-475.8754272460938	-1726.9267578125	313.4342651367188	-434.6481018066406	-1829.387084960938	665.1461181640625	-468.3248596191406	-1717.144165039062	596.7271728515625	-446.9408569335938	-2538.870849609375	341.3738403320312	-152.3522796630859	-1748.205078125	409.18896484375	-448.1266174316406	-1799.025268554688	573.4133911132812	-439.6729736328125	-1950.256469726562	664.6377563476562	-137.2034759521484	-1465.81591796875	228.1239166259766	-374.0197448730469	-2020.1005859375	702.59228515625	-133.3782196044922	-1998.456298828125	576.8037719726562	-147.9892272949219	-2068.641845703125	618.6815795898438	-150.6615905761719	-1737.89453125	547.0325317382812	-435.1382446289062	-2066.718017578125	577.5436401367188	-144.1591644287109	-1673.00830078125	427.3832092285156	-438.8391723632812	-1650.337036132812	330.5573425292969	-428.6336059570312	-2164.058349609375	503.6156005859375	-132.5809020996094	-1498.331909179688	178.0850830078125	-433.8522033691406	-2188.829345703125	580.0421752929688	-137.3584136962891	-1652.025756835938	96.50432586669922	-316.7916870117188	-2263.906005859375	473.8790588378906	-144.1348266601562	-2283.60302734375	551.0353393554688	-152.3319549560547	-1632.054931640625	148.5729522705078	-403.3695068359375	-2452.563232421875	459.1411743164062	-178.4119110107422	-2519.49609375	275.3477478027344	-202.4737243652344	-2448.827392578125	511.6430969238281	-242.6217041015625	-2470.4384765625	493.1863098144531	-277.6302490234375	-2479.81884765625	517.7701416015625	-224.8074340820312	-1661.493286132812	85.21529388427734	-369.6019897460938
85	0.42	-1886.608642578125	1497.07861328125	-462.8599853515625	-1786.61181640625	1488.098022460938	-183.2020111083984	-1858.762451171875	1032.177001953125	-449.2305603027344	-1826.32666015625	1020.46435546875	-152.6226043701172	-1800.991333007812	982.8703002929688	-430.8744201660156	-1657.707153320312	106.6468200683594	-340.6406555175781	-1776.449951171875	967.0322875976562	-178.4700775146484	-1923.18310546875	912.3720703125	-451.1420593261719	-1938.125122070312	946.5272827148438	-139.7457427978516	-1937.351318359375	1071.765380859375	-288.55322265625	-1731.665893554688	686.2644653320312	-475.1952514648438	-1707.249267578125	310.2796020507812	-433.6253662109375	-1812.380981445312	659.1030883789062	-470.1229858398438	-1699.859375	593.2643432617188	-444.7747497558594	-2520.20166015625	353.2325439453125	-152.5537261962891	-1728.495971679688	405.8541259765625	-447.6728515625	-1780.890991210938	567.3906860351562	-439.8285827636719	-1926.284545898438	660.9243774414062	-135.0886840820312	-1446.8388671875	226.194091796875	-373.5789794921875	-1997.011840820312	698.44482421875	-132.5450744628906	-1974.24365234375	571.896484375	-146.4992218017578	-2044.55078125	613.4071044921875	-149.0207977294922	-1718.487915039062	544.2975463867188	-434.30908203125	-2041.707397460938	572.70458984375	-141.9738311767578	-1653.994018554688	423.9735107421875	-437.6976318359375	-1630.979125976562	327.780029296875	-426.7718200683594	-2141.265380859375	501.3090209960938	-131.9376983642578	-1478.782592773438	173.8157196044922	-432.3611450195312	-2163.768798828125	579.4312744140625	-138.4385986328125	-1632.347290039062	94.49993133544922	-313.3278198242188	-2241.23876953125	474.6589965820312	-144.5792694091797	-2257.75146484375	551.6903686523438	-151.930419921875	-1612.5068359375	144.6296081542969	-400.5387878417969	-2430.463134765625	466.8338623046875	-178.6509857177734	-2505.15576171875	285.8949279785156	-203.2251129150391	-2423.20703125	516.04150390625	-242.5641784667969	-2446.29541015625	502.0663146972656	-278.5322570800781	-2453.582763671875	526.1375122070312	-224.7325134277344	-1641.906494140625	81.57658386230469	-366.4296264648438
